<svg xmlns="http://www.w3.org/2000/svg" viewBox="0 0 767.95 123"><defs><style>.cls-1{fill:#333;}.cls-2{fill:#fdd835;}.cls-3{fill:#e8c52e;}</style></defs><g id="レイヤー_2" data-name="レイヤー 2"><g id="LOGO_Master"><path class="cls-1" d="M190.81,13.59a137.69,137.69,0,0,1,22.88-1.76c11.77,0,19.83,2,25.37,6.58,4.55,3.76,7.12,9.44,7.12,16.51,0,10.51-7.19,17.7-14.83,20.39v.36c5.9,2.25,9.32,7.85,11.35,15.75,2.59,10.12,4.85,19.65,6.48,22.83H233.4c-1.26-2.37-3.23-9.1-5.52-19.27-2.34-10.6-6.16-14-14.55-14.16h-7.28V94.25H190.81Zm15.24,36h8.65c10,0,16.17-5.27,16.17-13.27,0-8.73-6.13-12.87-15.65-12.9a41.54,41.54,0,0,0-9.17.74Z"/><path class="cls-1" d="M316.84,91.62c-3.43,1.71-11,3.59-20.71,3.59C270.5,95.21,255.2,79.12,255.2,55c0-26.4,18.49-42.18,42.89-42.18,9.58,0,16.42,1.94,19.39,3.54l-3.23,12a38,38,0,0,0-15.54-3.11c-16,0-27.71,10-27.71,29,0,17.43,10.17,28.46,27.56,28.46,5.86,0,12-1.17,15.83-2.86Z"/><path class="cls-1" d="M332.21,13.58a125.33,125.33,0,0,1,21.84-1.75c10.9,0,17.71,1.37,23.28,5.07a17.32,17.32,0,0,1,8.51,15.33c0,7.4-4.59,14.19-13.46,17.43V50c8.64,2.2,16.36,9,16.36,20a21.35,21.35,0,0,1-7.83,16.78c-5.8,4.95-15.31,7.46-30.31,7.46a140.5,140.5,0,0,1-18.39-1.08Zm15.1,31.87h7.38c10.2,0,15.83-4.74,15.83-11.49,0-7.43-5.64-10.9-14.83-10.9a40.45,40.45,0,0,0-8.38.64Zm0,37a46,46,0,0,0,7.73.41c9.33,0,17.7-3.51,17.7-13.33,0-9.26-8.16-13-18.2-13.06h-7.23Z"/><path class="cls-1" d="M460.69,61.05c0,22.91-16.09,33.2-32.13,33.2-17.65,0-31.32-12.12-31.32-32.12,0-20.42,13.45-33.05,32.39-33.05C448.25,29.08,460.69,42.16,460.69,61.05Zm-46.79.67c0,11.84,5.81,20.79,15.17,20.79,8.87,0,15-8.59,15-21,0-9.73-4.24-20.7-14.86-20.7C418.32,40.83,413.9,51.47,413.9,61.72Z"/><path class="cls-1" d="M532.28,61.05c0,22.91-16.09,33.2-32.13,33.2-17.65,0-31.32-12.12-31.32-32.12,0-20.42,13.45-33.05,32.39-33.05C519.84,29.08,532.28,42.16,532.28,61.05Zm-46.79.67c0,11.84,5.81,20.79,15.18,20.79,8.86,0,14.95-8.59,14.95-21,0-9.73-4.24-20.7-14.86-20.7C489.91,40.83,485.49,51.47,485.49,61.72Z"/><path class="cls-1" d="M557.93,60.91h.24c1.4-2.33,3.09-4.84,4.62-7l14.14-18.87H595.4L573.54,59.21l24.94,35H579.61L562.92,68.32l-5,6v20H542.55V8h15.38Z"/><path class="cls-1" d="M641.37,52.27c0-7-.23-12.78-.5-18h13.61l.76,8.92h.35a21.83,21.83,0,0,1,19-10.27c10.67,0,21.34,6.9,21.34,25.72V94.25h-15.6V60.48c0-8.5-3.11-14.9-11.21-14.9-5.93,0-10,4.18-11.52,8.67A14.9,14.9,0,0,0,657,59V94.25H641.37Z"/><path class="cls-1" d="M768,33.37c-.31,4.2-.55,9.42-.55,18.1V87c0,13-2.71,22.43-9.59,28.41C751,121.2,741.63,123,732.65,123c-8.25,0-17-1.73-22.58-5l3.58-12.41a39.36,39.36,0,0,0,18.84,4.82c10.49,0,18.36-5.39,18.36-18.66V86.6h-.27c-3.69,5.44-10.22,9.07-18.66,9.07-16,0-27.42-12.86-27.42-30.59C704.5,44.44,718.26,32,733.75,32c9.8,0,15.55,4.48,18.67,9.66h.27l.6-8.25ZM750.61,58.58a15.43,15.43,0,0,0-.5-4.19c-1.69-5.74-6.25-10-13.05-10-8.84,0-15.54,7.55-15.54,20.19,0,10.49,5.45,19,15.48,19a13.39,13.39,0,0,0,12.9-9.4,19.76,19.76,0,0,0,.71-5.52Z"/><polygon class="cls-1" points="609 93.81 605.33 34.01 627.54 34.01 624.29 93.81 609 93.81"/><circle class="cls-2" cx="616.44" cy="19.08" r="10"/><path class="cls-3" d="M624.47,13.15a15.48,15.48,0,0,1-13.3,14.42,10,10,0,0,0,13.3-14.42Z"/><path class="cls-2" d="M26,46l27.4,1c2.28,0,4.55.09,6.83.18l6.82.12c2.28,0,4.55.06,6.82.09H87.54l6.82-.1,6.83-.12c2.27-.09,4.55-.14,6.82-.17l27.4-1,.22,1.79a164.49,164.49,0,0,1-27.22,5.39c-4.59.61-9.21.9-13.82,1.25-2.31.14-4.62.18-6.94.28l-6.93.13-6.94-.14c-2.31-.09-4.62-.13-6.93-.28-4.62-.35-9.23-.64-13.82-1.25A166.88,166.88,0,0,1,25.8,47.83Z"/><path class="cls-2" d="M0,105H18.5c0-1.91,0-3.83,0-5.74q62.49.75,125,0c0,1.91,0,3.83,0,5.74H162V63A738.59,738.59,0,0,1,0,63Z"/><rect class="cls-2" y="59" width="10" height="6"/><rect class="cls-2" x="152" y="59" width="10" height="6"/><rect class="cls-2" x="23" width="10" height="4"/><rect class="cls-2" x="129" width="10" height="4"/><path class="cls-2" d="M23,32q9-1,18-1.67,0-7.48,0-14.95,16-.53,32-.63V28.87q8-.12,16,0V14.75q16,.11,32,.63,0,7.47,0,14.95Q130,31,139,32V4H23Z"/><polygon class="cls-3" points="143.48 99.23 137.92 99.23 143.48 88.66 143.48 99.23"/><polygon class="cls-3" points="24.05 99.23 18.48 99.23 18.48 88.66 24.05 99.23"/></g></g></svg>