<svg xmlns="http://www.w3.org/2000/svg" width="530.034" height="56" viewBox="0 0 530.034 56"><g transform="translate(265.017 28)"><g transform="translate(-265.017 -28)"><g transform="translate(311.062 5.368)"><g transform="translate(89.233)"><path d="M482.753,36.319l-12.81,9.174,4.674-15.233-12.117-9h15.146L482.753,6.2Z" transform="translate(-462.5 -6.2)" fill="#84a422"/><path d="M485.295,6.3l1.3,3.722,1.3,3.722,1.3,3.722,1.3,3.722h15.146l-3.029,2.25-3.029,2.25-3.029,2.25-3.029,2.25L494.729,34,495.94,37.8l1.212,3.808,1.212,3.808-3.549-2.164-3.2-2.337-3.2-2.337-3.116-2.25L481.4,28.8l3.895-7.53Z" transform="translate(-465.042 -6.213)" fill="#a2b54c"/></g><path d="M379.653,36.319l-12.809,9.174,4.674-15.233-12.117-9h15.146L379.653,6.2Z" transform="translate(-359.4 -6.2)" fill="#da790f"/><path d="M382.195,6.3l1.3,3.722,1.3,3.722,1.3,3.722,1.3,3.722h15.146l-3.029,2.25-3.029,2.25-3.029,2.25-3.029,2.25L391.629,34,392.84,37.8l1.212,3.808,1.212,3.808L391.8,43.257l-3.2-2.337-3.2-2.337-3.2-2.25L378.3,28.8l3.895-7.53Z" transform="translate(-361.942 -6.213)" fill="#e19440"/><g transform="translate(44.66)"><path d="M431.166,36.319l-12.809,9.174,4.76-15.146L411,21.26h15.146L431.253,6.2Z" transform="translate(-411 -6.2)" fill="#e29c11"/><path d="M433.695,6.3l1.3,3.722,1.3,3.722,1.3,3.722,1.3,3.722h15.146L451,23.437l-3.029,2.25-3.029,2.25-3.029,2.25L443.129,34,444.34,37.8l1.212,3.808,1.212,3.808L443.3,43.257l-3.2-2.337-3.2-2.25-3.2-2.337L429.8,28.8l3.895-7.53Z" transform="translate(-413.529 -6.213)" fill="#e8ae3b"/></g><g transform="translate(133.893)"><path d="M534.266,36.319l-12.81,9.174,4.674-15.146L514.1,21.26h15.146L534.353,6.2Z" transform="translate(-514.1 -6.2)" fill="#76a1ca"/><path d="M536.795,6.3l1.3,3.722,1.3,3.722,1.3,3.722,1.3,3.722h15.146l-3.029,2.25-3.029,2.25-3.029,2.25-3.029,2.25L546.229,34l1.212,3.808,1.212,3.808,1.212,3.808L546.4,43.257l-3.2-2.337L540,38.583l-3.2-2.25L532.9,28.8l3.895-7.53Z" transform="translate(-516.629 -6.213)" fill="#99b9d8"/></g><g transform="translate(178.467)"><path d="M585.766,36.319l-12.723,9.174,4.674-15.233-12.117-9h15.146L585.853,6.2Z" transform="translate(-565.6 -6.2)" fill="#96709d"/><path d="M588.295,6.3l1.3,3.722,1.3,3.722,1.3,3.722,1.3,3.722h15.146l-3.029,2.25-3.029,2.25-3.029,2.25-3.029,2.25L597.729,34,598.94,37.8l1.212,3.808,1.212,3.808L597.9,43.257l-3.2-2.337-3.2-2.337-3.2-2.25L584.4,28.8l3.895-7.53Z" transform="translate(-568.129 -6.213)" fill="#b193b5"/></g></g><g transform="translate(297.82 33.843)"><path d="M349.466,39.792a4.674,4.674,0,1,1-4.674,4.674,4.674,4.674,0,0,1,4.674-4.674m0-.692a5.366,5.366,0,1,0,5.366,5.366A5.366,5.366,0,0,0,349.466,39.1Z" transform="translate(-344.1 -39.1)" fill="#403f3f"/><path d="M347.9,42h1.9a3.116,3.116,0,0,1,1.991.433,1.472,1.472,0,0,1,.519,1.212,1.558,1.558,0,0,1-1.125,1.471h0a1.558,1.558,0,0,1,.779,1.039,6.08,6.08,0,0,0,.519,1.644h-1.3a7.187,7.187,0,0,1-.433-1.385c-.173-.779-.433-.952-1.039-.952H349.2V47.8h-1.3Zm1.3,2.51h.692c.692,0,1.212-.346,1.212-.866s-.433-.866-1.125-.866h-.692Z" transform="translate(-344.611 -39.487)" fill="#403f3f"/></g><path d="M0,.952A75.99,75.99,0,0,1,12.55,0C19.041,0,23.369,1.125,26.4,3.635a11.078,11.078,0,0,1,3.808,8.828A11.684,11.684,0,0,1,21.9,23.541v.173c3.289,1.212,5.193,4.328,6.318,8.568C29.687,38,30.9,42.929,31.764,44.66H23.888c-.692-1.3-1.731-4.847-3.029-10.473s-3.549-7.79-8.4-7.963H7.7V44.66H0ZM7.7,20.6h5.453c5.8,0,9.347-2.943,9.347-7.443S18.695,5.8,13.242,5.8A25.186,25.186,0,0,0,7.7,6.231Z" transform="translate(0 0.002)" fill="#403f3f"/><path d="M43.437,33.2c.173,5.626,4.587,8.136,9.694,8.136A23.282,23.282,0,0,0,61.7,39.861l1.212,5.02a27.436,27.436,0,0,1-10.646,1.991c-9.78,0-15.666-6.059-15.666-15.06S41.706,15.8,51.487,15.8s13.156,8.4,13.156,14.454a14.194,14.194,0,0,1-.26,2.943ZM57.8,28.177c0-2.6-1.125-7.53-6.751-7.53s-7.184,4.414-7.53,7.53Z" transform="translate(-4.923 -2.123)" fill="#403f3f"/><path d="M72.76,26.259c0-3.808-.087-7.7-.26-10.559h6.145l.519,5.453h.087C81.5,17.691,85.136,15.7,89.983,15.7c7.011,0,12.983,5.8,12.983,15.06,0,10.732-6.924,16.012-14.021,16.012-3.895,0-7.27-1.558-8.915-4.241h-.087V58.11H72.76Zm7.184,7.27a9.867,9.867,0,0,0,.173,1.991,7.53,7.53,0,0,0,7.357,5.712c5.193,0,8.309-3.981,8.309-10.126s-2.856-9.78-8.136-9.78A7.7,7.7,0,0,0,80.2,27.3a8.136,8.136,0,0,0-.26,1.9Z" transform="translate(-9.751 -2.11)" fill="#403f3f"/><path d="M145.693,42.583a30.3,30.3,0,0,1-11.944,2.077c-13.935,0-22.849-8.482-22.849-21.9S120.853,0,134.874,0c5.539,0,9.434,1.125,11.078,1.991l-1.731,5.972a22.157,22.157,0,0,0-9-1.731c-9.694,0-16.358,5.885-16.358,16.271s5.8,15.925,16.185,15.925a24.321,24.321,0,0,0,9.347-1.731Z" transform="translate(-14.916 0.002)" fill="#403f3f"/><path d="M155.873,0h7.357V18.781h.087A11.078,11.078,0,0,1,167.3,15.06a11.251,11.251,0,0,1,5.453-1.385c4.933,0,10.992,3.116,10.992,13.329V44.66h-7.357V27.869c0-4.674-1.731-8.222-6.4-8.222a7.01,7.01,0,0,0-6.578,4.587,6.319,6.319,0,0,0-.346,2.424v18H155.7Z" transform="translate(-20.941 0.002)" fill="#403f3f"/><path d="M198.224,33.183c.173,5.626,4.587,8.136,9.694,8.136a23.282,23.282,0,0,0,8.568-1.471l1.125,4.933a27.437,27.437,0,0,1-10.646,1.991c-9.78,0-15.666-6.059-15.666-15.06S196.406,15.7,206.187,15.7s13.156,8.4,13.156,14.454a14.2,14.2,0,0,1-.26,2.943Zm14.367-5.02c0-2.6-1.125-7.53-6.751-7.53s-7.184,4.414-7.53,7.53Z" transform="translate(-25.729 -2.11)" fill="#403f3f"/><path d="M251.094,45.127a22.417,22.417,0,0,1-8.828,1.644c-9.521,0-15.666-6.059-15.666-15.233S232.918,15.7,243.477,15.7a20.253,20.253,0,0,1,7.7,1.471L249.8,22.537a13.415,13.415,0,0,0-6.145-1.3c-6.145,0-9.78,4.328-9.78,9.953a9.682,9.682,0,0,0,9.78,9.867,15.926,15.926,0,0,0,6.4-1.3Z" transform="translate(-30.477 -2.11)" fill="#403f3f"/><path d="M266.157,27.783h.087c.779-1.125,1.731-2.423,2.6-3.462l8.655-10.646h9l-12.55,13.069L287.535,44.66h-9.088l-9.52-13.675-2.77,3.116V44.66H258.8V0h7.357Z" transform="translate(-34.808 0.002)" fill="#403f3f"/><path d="M295.724,33.183c.173,5.626,4.587,8.136,9.694,8.136a23.282,23.282,0,0,0,8.569-1.471l1.125,4.933a27.436,27.436,0,0,1-10.646,1.991c-9.78,0-15.666-6.059-15.666-15.06S293.906,15.7,303.687,15.7s13.156,8.4,13.156,14.454a14.185,14.185,0,0,1-.26,2.943Zm14.367-5.02c0-2.6-1.125-7.53-6.751-7.53s-7.184,4.414-7.53,7.53Z" transform="translate(-38.843 -2.11)" fill="#403f3f"/><path d="M324.76,25.986c0-4.068-.087-7.616-.26-10.386h6.232l.26,6.491h.173a9,9,0,0,1,8.4-6.491l1.731.173v6.751a10.127,10.127,0,0,0-2.25-.26c-3.808,0-6.318,2.423-7.011,6.059a12.639,12.639,0,0,0-.173,2.25V46.758h-7.184Z" transform="translate(-43.644 -2.096)" fill="#403f3f"/></g></g></svg>