<svg xmlns="http://www.w3.org/2000/svg" width="175.496" height="134" viewBox="0 0 175.496 134"><g transform="translate(-1006.422 -225.55)"><g transform="translate(1029.14 225.55)"><g transform="translate(0 0)"><path d="M1174.76,392.044a10.709,10.709,0,0,0-2.939-.418,16.187,16.187,0,0,1-9.056-2.758c-.2-.134-.4-.273-.589-.416a16.416,16.416,0,0,1-3.462-3.462c-.143-.193-.282-.389-.416-.589a16.187,16.187,0,0,1-2.758-9.055c0-.146-.025-.285-.031-.429-.011-.291-.029-.579-.063-.864-.02-.161-.046-.319-.073-.477q-.083-.5-.211-.985c-.016-.06-.023-.124-.04-.184-.01-.037-.025-.073-.036-.11-.045-.153-.1-.3-.15-.454s-.105-.3-.164-.446-.128-.315-.2-.47c-.059-.131-.123-.26-.187-.388-.079-.158-.158-.317-.245-.47-.064-.112-.133-.22-.2-.329a10.8,10.8,0,0,0-.681-.987c-.042-.054-.08-.111-.123-.164-.118-.146-.245-.284-.371-.424-.084-.094-.167-.188-.254-.279-.127-.132-.259-.259-.393-.384-.095-.089-.191-.177-.289-.263-.137-.12-.276-.237-.419-.349-.1-.081-.208-.158-.314-.235-.148-.108-.3-.217-.45-.318-.1-.065-.2-.124-.305-.186a10.7,10.7,0,0,0-1-.54c-.09-.042-.177-.089-.268-.129-.176-.077-.357-.144-.538-.212-.117-.044-.232-.089-.351-.128-.184-.062-.371-.116-.559-.168q-.177-.049-.354-.091c-.2-.047-.4-.09-.6-.127-.106-.019-.213-.033-.32-.049-.219-.033-.439-.065-.662-.084l-.067,0c-.285-.023-.571-.044-.862-.044a10.683,10.683,0,0,0-6.822,2.46l-.025.021q-.38.316-.731.664l-.033.032a10.844,10.844,0,0,0-1.814,2.42c-.029.053-.055.107-.083.161-.123.233-.239.471-.345.715-.035.079-.068.158-.1.238-.095.231-.18.467-.259.706-.027.081-.055.16-.08.242-.017.056-.039.11-.055.167-.026.091-.036.187-.06.278-.072.28-.134.563-.183.851-.032.181-.061.362-.084.547-.031.263-.046.529-.058.8-.007.157-.034.308-.034.466a16.186,16.186,0,0,1-2.758,9.055c-.134.2-.274.4-.416.589a16.415,16.415,0,0,1-3.462,3.462c-.193.143-.389.282-.589.416a16.187,16.187,0,0,1-9.055,2.758,10.737,10.737,0,1,0,10.764,10.764,16.185,16.185,0,0,1,2.758-9.055c.134-.2.273-.4.416-.589a16.426,16.426,0,0,1,3.462-3.462c.193-.142.389-.282.589-.416a16.186,16.186,0,0,1,8.99-2.755c.025,0,.049.005.075.005a16.185,16.185,0,0,1,9.055,2.758c.2.134.4.274.589.416a16.415,16.415,0,0,1,3.462,3.462c.143.193.282.389.416.589a16.185,16.185,0,0,1,2.758,9.056,10.764,10.764,0,1,0,13.7-10.346Z" transform="translate(-1106.958 -333.159)" fill="#2889cc"/><path d="M1507.781,392.071a10.711,10.711,0,0,0-2.939-.418,16.186,16.186,0,0,1-9.055-2.758c-.2-.134-.4-.273-.589-.416a16.414,16.414,0,0,1-3.462-3.462c-.143-.193-.282-.389-.416-.589a16.186,16.186,0,0,1-2.758-9.055,10.736,10.736,0,1,0-10.764,10.764,16.186,16.186,0,0,1,9.055,2.758c.2.134.4.274.589.416a16.413,16.413,0,0,1,3.462,3.462c.143.193.282.389.416.589a16.184,16.184,0,0,1,2.758,9.055,10.764,10.764,0,1,0,13.7-10.346Z" transform="translate(-1385.668 -333.186)" fill="#ec730d"/><circle cx="10.697" cy="10.697" r="10.697" transform="translate(49.666 15.128) rotate(-45)" fill="#2889cc"/></g></g><g transform="translate(1006.422 317.117)"><path d="M1021.321,630.774c-8.773,0-14.9,6.635-14.9,16.136V673.2h6.936V654.852h15.924V673.2h6.937V646.91C1036.219,637.409,1030.093,630.774,1021.321,630.774Zm7.961,17.66h-15.924v-1.869c0-5.782,3.051-9.373,7.963-9.373s7.961,3.591,7.961,9.373Z" transform="translate(-1006.422 -630.774)" fill="#173045"/><rect width="6.579" height="30.125" transform="translate(39.406 12.305)" fill="#173045"/><path d="M1182.268,630.774a3.729,3.729,0,1,0,3.825,3.727A3.7,3.7,0,0,0,1182.268,630.774Z" transform="translate(-1139.572 -630.774)" fill="#ec730d"/><path d="M1249.57,645.008v28.2h6.936V654.968h14.229V648.55h-14.229v-4.12c0-4.937,2.378-7.237,7.485-7.237h6.744v-6.419h-7.576C1254.649,630.775,1249.57,636.1,1249.57,645.008Z" transform="translate(-1194.627 -630.775)" fill="#173045"/><path d="M1528.806,700.618a15.124,15.124,0,0,0,15.534,15.021h7.463v-6.4h-6.478c-4.705,0-9.469-2.961-9.469-8.62s4.763-8.62,9.469-8.62h6.478v-6.4h-7.463A15.124,15.124,0,0,0,1528.806,700.618Z" transform="translate(-1410.765 -673.209)" fill="#173045"/><path d="M1670.005,700.209l-.127.6c-1.2,5.7-3.872,8.126-8.929,8.126a8.459,8.459,0,0,1-6.591-2.871l21.293-11.414-.291-.581c-2.985-5.981-7.969-9.143-14.411-9.143a15.1,15.1,0,1,0,0,30.2c8.376,0,14.916-5.671,15.55-13.486l.052-.642Zm-9.057-9.1a7.141,7.141,0,0,1,5.345,1.84l-14,7.511c-.006-.147-.019-.291-.019-.441C1652.271,694.778,1655.839,691.114,1660.949,691.114Z" transform="translate(-1501.055 -672.69)" fill="#173045"/><path d="M1384.2,685.139a15.081,15.081,0,0,0-15.813,16.791,15.235,15.235,0,0,0,13.873,13.3q.55.04,1.1.04a14.934,14.934,0,0,0,7.736-2.158l.249-.15v-7.773l-.905,1.056a9.312,9.312,0,1,1-6.711-15.358,9.606,9.606,0,0,1,8.952,9.706v10.323a4.357,4.357,0,0,0,4.353,4.353h1.407V700.708A15.342,15.342,0,0,0,1384.2,685.139Z" transform="translate(-1286.52 -672.837)" fill="#2889cc"/></g></g></svg>